<?xml version="1.0" encoding="UTF-8"?>
<!DOCTYPE svg PUBLIC "-//W3C//DTD SVG 1.1//EN" "http://www.w3.org/Graphics/SVG/1.1/DTD/svg11.dtd">
<!-- Creator: CorelDRAW 2020 (64-Bit) -->
<svg xmlns="http://www.w3.org/2000/svg" xml:space="preserve" width="1.21443in" height="1.33079in" version="1.1" style="shape-rendering:geometricPrecision; text-rendering:geometricPrecision; image-rendering:optimizeQuality; fill-rule:evenodd; clip-rule:evenodd"
viewBox="0 0 102.84 112.69"
 xmlns:xlink="http://www.w3.org/1999/xlink"
 xmlns:xodm="http://www.corel.com/coreldraw/odm/2003">
 <defs>
  <style type="text/css">
   <![CDATA[
    .str0 {stroke:#999999;stroke-width:0.59;stroke-miterlimit:2.61313}
    .str1 {stroke:#009DFF;stroke-width:0.25;stroke-miterlimit:2.61313}
    .fil4 {fill:#009DFF}
    .fil2 {fill:#2F3740}
    .fil1 {fill:#3F4857}
    .fil3 {fill:#BCBCBE}
    .fil0 {fill:#D2D2D2}
   ]]>
  </style>
 </defs>
 <g id="Layer_x0020_1">
  <metadata id="CorelCorpID_0Corel-Layer"/>
  <g id="_2468044809696">
   <path class="fil0 str0" d="M51.42 112.4l-39.25 0c-3.93,0 -7.14,-3.06 -7.14,-6.8l0 -10.96c-2.68,-0.46 -4.74,-2.71 -4.74,-5.4l0 -25.73c0,-2.59 1.9,-4.77 4.44,-5.34 0.81,-6.32 6.55,-25.94 46.68,-28.39 40.13,2.45 45.88,22.07 46.68,28.39 2.54,0.57 4.44,2.75 4.44,5.34l0 25.73c0,2.69 -2.05,4.94 -4.74,5.4l0 10.96c0,3.74 -3.21,6.8 -7.14,6.8l-39.25 0z"/>
   <g>
    <path class="fil1" d="M85.31 71.75l0 22.19c0,0.68 -0.59,1.24 -1.3,1.24l-32.59 0 -32.59 0c-0.72,0 -1.3,-0.56 -1.3,-1.24l0 -22.19c0,-14.05 16.53,-22.24 33.89,-23.42 17.37,1.18 33.89,9.37 33.89,23.42z"/>
    <path class="fil2" d="M18.12 67.28c19.93,-17.31 42.18,-16.39 65.01,-3.87 -5.05,-8.95 -18.12,-14.16 -31.7,-15.09 -15.44,1.05 -30.21,7.64 -33.3,18.96z"/>
   </g>
   <path class="fil3" d="M17.53 71.75c0,0 -0.93,-25.72 33.76,-27.56 0,0 30.58,0.77 33.83,24.96 -0.31,-2.05 -1,-3.97 -2,-5.73l0 0 -0 -0 -0.1 -0.16c-0.06,-0.11 -0.12,-0.21 -0.19,-0.31l-0.13 -0.21 -0.17 -0.27 -0.14 -0.21c-0.07,-0.1 -0.14,-0.21 -0.21,-0.31l-0.1 -0.15c-0.1,-0.15 -0.21,-0.29 -0.32,-0.43l-0.14 -0.19 -0.2 -0.26 -0.17 -0.2 -0.21 -0.25 -0.16 -0.19c-0.1,-0.11 -0.19,-0.22 -0.29,-0.33l-0.18 -0.2c-0.09,-0.1 -0.18,-0.2 -0.28,-0.3l-0.16 -0.17c-0.08,-0.09 -0.17,-0.17 -0.25,-0.26l-0.17 -0.17c-0.09,-0.09 -0.18,-0.17 -0.27,-0.26l-0.16 -0.15c-0.14,-0.13 -0.27,-0.25 -0.41,-0.37l-0.18 -0.16 -0.27 -0.23 -0.2 -0.17 -0.26 -0.22 -0.21 -0.17c-0.11,-0.09 -0.22,-0.17 -0.32,-0.25l-0.23 -0.17c-0.12,-0.09 -0.25,-0.19 -0.38,-0.28l-0.23 -0.17 -0.28 -0.2 -0.23 -0.16 -0.3 -0.2 -0.22 -0.15c-0.14,-0.09 -0.28,-0.18 -0.43,-0.27l-0.29 -0.18 -0.31 -0.19 -0.25 -0.15 -0.29 -0.17 -0.27 -0.16 -0.33 -0.18 -0.22 -0.12c-0.17,-0.09 -0.35,-0.19 -0.52,-0.28l-0.28 -0.15 -0.3 -0.15 -0.27 -0.13 -0.39 -0.19 -0.19 -0.09c-0.19,-0.09 -0.39,-0.18 -0.59,-0.27l-0.01 -0 -0.02 -0.01 -0.12 -0.05c-0.16,-0.07 -0.32,-0.14 -0.48,-0.21l-0.21 -0.09 -0.43 -0.18 -0.22 -0.09 -0.43 -0.17 -0.22 -0.09c-0.2,-0.08 -0.41,-0.16 -0.61,-0.23l-0.19 -0.07 -0.45 -0.17 -0.27 -0.09 -0.4 -0.14 -0.25 -0.09c-0.22,-0.07 -0.43,-0.14 -0.65,-0.21l-0.01 -0c-0.21,-0.07 -0.42,-0.13 -0.64,-0.2l-0.28 -0.08 -0.43 -0.13 -0.24 -0.07 -0.49 -0.14 -0.19 -0.05c-0.22,-0.06 -0.44,-0.12 -0.67,-0.18l-0.25 -0.06 -0.44 -0.11 -0.3 -0.07 -0.43 -0.1 -0.26 -0.06c-0.2,-0.05 -0.39,-0.09 -0.59,-0.13l-0.09 -0.02 -0.04 -0.01c-0.22,-0.05 -0.44,-0.09 -0.66,-0.14l-0.28 -0.05 -0.47 -0.09 -0.26 -0.05 -0.51 -0.09 -0.21 -0.04c-0.23,-0.04 -0.47,-0.08 -0.7,-0.12l-0.03 -0.01 -0.11 -0.02c-0.2,-0.03 -0.41,-0.06 -0.61,-0.09l-0.22 -0.03c-0.18,-0.03 -0.36,-0.05 -0.54,-0.08l-0.22 -0.03c-0.21,-0.03 -0.42,-0.05 -0.64,-0.08l-0.1 -0.01c-0.25,-0.03 -0.51,-0.06 -0.76,-0.09l-0.11 -0.01c-0.22,-0.02 -0.43,-0.04 -0.65,-0.07l-0.17 -0.02 -0.57 -0.05 -0.23 -0.02c-0.24,-0.02 -0.49,-0.04 -0.73,-0.05 -0.26,0.02 -0.52,0.04 -0.78,0.06l-0.23 0.02 -0.54 0.05 -0.26 0.03 -0.52 0.05 -0.27 0.03 -0.5 0.06 -0.27 0.03 -0.49 0.06 -0.3 0.04 -0.5 0.07 -0.26 0.04c-0.19,0.03 -0.38,0.06 -0.57,0.09l-0.19 0.03c-0.24,0.04 -0.47,0.08 -0.71,0.12l-0.06 0.01 -0 0 -0.07 0.01c-0.23,0.04 -0.46,0.08 -0.68,0.12l-0.31 0.06 -0.41 0.08 -0.39 0.08 -0.37 0.08 -0.32 0.07 -0.44 0.1 -0.29 0.07 -0.44 0.1 -0.31 0.08 -0.4 0.1 -0.34 0.09c-0.15,0.04 -0.3,0.08 -0.45,0.12l-0.24 0.07c-0.24,0.07 -0.48,0.13 -0.72,0.2l-0 0c-0.23,0.07 -0.46,0.13 -0.69,0.2l-0.34 0.11 -0.36 0.11 -0.3 0.1 -0.41 0.14 -0.28 0.09 -0.41 0.14 -0.3 0.11 -0.36 0.13 -0.32 0.12 -0.37 0.14 -0.29 0.11 -0.41 0.17 -0.25 0.1c-0.19,0.08 -0.38,0.16 -0.56,0.24l-0.08 0.03 -0 0 -0.1 0.04c-0.18,0.08 -0.35,0.15 -0.53,0.23l-0.29 0.13 -0.33 0.15 -0.31 0.15 -0.31 0.15 -0.31 0.16 -0.3 0.15 -0.3 0.16 -0.3 0.16 -0.32 0.17 -0.24 0.14c-0.11,0.06 -0.22,0.13 -0.34,0.19l-0.28 0.16 -0.29 0.17c-0.1,0.06 -0.2,0.12 -0.31,0.19 -0.21,0.13 -0.42,0.26 -0.63,0.4l-0.15 0.09c-0.11,0.07 -0.22,0.15 -0.33,0.22l-0.21 0.14c-0.1,0.07 -0.21,0.14 -0.31,0.22l-0.22 0.15 -0.29 0.21 -0.23 0.17 -0.29 0.22 -0.19 0.15 -0.3 0.24 -0.2 0.17 -0.27 0.23 -0.19 0.16c-0.1,0.08 -0.19,0.17 -0.29,0.25l-0.06 0.05c-0.24,0.21 -0.47,0.43 -0.7,0.65l-0.11 0.1c-0.09,0.08 -0.17,0.17 -0.25,0.25l-0.18 0.18c-0.08,0.08 -0.15,0.16 -0.23,0.24l-0.18 0.19c-0.08,0.09 -0.17,0.18 -0.25,0.28l-0.14 0.16c-0.09,0.1 -0.17,0.2 -0.25,0.3l-0.13 0.15c-0.08,0.1 -0.16,0.2 -0.24,0.3l-0.13 0.17c-0.08,0.1 -0.15,0.2 -0.23,0.3l-0.11 0.15c-0.29,0.4 -0.57,0.81 -0.83,1.23l-0.01 0.02c-0.07,0.12 -0.14,0.23 -0.21,0.35l-0.09 0.15c-0.06,0.11 -0.13,0.23 -0.19,0.34l-0.09 0.16c-0.06,0.11 -0.12,0.23 -0.18,0.34l-0.08 0.17c-0.06,0.11 -0.11,0.23 -0.16,0.34l-0.08 0.18c-0.05,0.11 -0.1,0.23 -0.15,0.34l-0.07 0.17c-0.05,0.12 -0.1,0.24 -0.14,0.36l-0.06 0.17c-0.05,0.12 -0.09,0.25 -0.14,0.37l-0.02 0.07c-0.58,1.7 -0.89,3.52 -0.89,5.45zm67.74 -1.33l0 0.02 0 0.01 -0 -0.02zm0.04 0.85c0,0.16 0.01,0.33 0.01,0.49l0 -0c0,-0.16 -0,-0.33 -0.01,-0.49z"/>
   <ellipse class="fil0" cx="30.25" cy="10.26" rx="7.7" ry="10.26"/>
   <ellipse class="fil3" cx="30.25" cy="10.26" rx="3.42" ry="4.56"/>
   <ellipse class="fil0" cx="72.59" cy="10.26" rx="7.7" ry="10.26"/>
   <ellipse class="fil3" cx="72.59" cy="10.26" rx="3.42" ry="4.56"/>
  </g>
  <path class="fil4 str1" d="M62.2 74.03c3.39,-1.45 2.75,-2.28 1.88,-5.01 -0.24,-0.73 -0.98,-1.37 -1.79,-1.3 -1.03,0.09 -2.04,0.18 -2.04,0.18 -0.28,-0.48 -0.67,-0.95 -1.15,-1.41 0.3,-1.01 1.17,-3.16 -0.14,-3.86 -0.74,-0.4 -2.35,-1.26 -2.35,-1.26 0,0 -1.21,-0.29 -1.87,0.46 -0.66,0.76 -1.4,1.61 -1.4,1.61 0,0 -1.42,-0.31 -1.79,-0.16 -0.01,0 -0.01,0.01 -0.02,0.02l-0.1 0 0 -0.05c-1.45,-3.39 -2.28,-2.75 -5.01,-1.88 -0.73,0.24 -1.37,0.98 -1.3,1.79 0.09,1.03 0.19,2.04 0.19,2.04 -0.48,0.28 -0.95,0.67 -1.41,1.16 -1.01,-0.3 -3.16,-1.17 -3.86,0.14 -0.4,0.74 -1.25,2.35 -1.25,2.35 0,0 -0.29,1.21 0.46,1.87 0.76,0.66 1.61,1.4 1.61,1.4 0,0 -0.1,0.44 -0.16,0.89l0 0c-0.04,0.34 -0.07,0.68 -0.02,0.86l-0.02 -0c-3.41,1.41 -2.78,2.24 -1.95,4.98 0.22,0.74 0.96,1.38 1.77,1.32 1.03,-0.07 2.04,-0.16 2.04,-0.16 0.27,0.48 0.66,0.96 1.13,1.43 -0.31,1.01 -1.22,3.14 0.08,3.86 0.74,0.41 2.33,1.29 2.33,1.29 0,0 1.21,0.31 1.88,-0.44 0.67,-0.75 1.42,-1.59 1.42,-1.59 0,0 1.42,0.33 1.79,0.19l0.42 0.01 0 0.02c1.5,3.37 2.32,2.71 5.04,1.81 0.73,-0.25 1.35,-1 1.27,-1.81 -0.1,-1.03 -0.21,-2.03 -0.21,-2.03 0.48,-0.29 0.94,-0.68 1.39,-1.18 1.02,0.29 3.17,1.13 3.85,-0.19 0.39,-0.75 1.22,-2.37 1.22,-2.37 0,0 0.28,-1.21 -0.49,-1.86 -0.77,-0.65 -1.63,-1.37 -1.63,-1.37 0,0 0.28,-1.34 0.15,-1.76l0.02 0zm-10.78 -4.72c-2.59,0 -4.7,2.1 -4.7,4.7 0,2.59 2.1,4.7 4.7,4.7 2.59,0 4.7,-2.1 4.7,-4.7 0,-2.59 -2.1,-4.7 -4.7,-4.7z"/>
 </g>
</svg>
