<?xml version="1.0" encoding="UTF-8"?>
<!DOCTYPE svg PUBLIC "-//W3C//DTD SVG 1.1//EN" "http://www.w3.org/Graphics/SVG/1.1/DTD/svg11.dtd">
<!-- Creator: CorelDRAW 2020 (64-Bit) -->
<svg xmlns="http://www.w3.org/2000/svg" xml:space="preserve" width="1.02706in" height="1.12482in" version="1.1" style="shape-rendering:geometricPrecision; text-rendering:geometricPrecision; image-rendering:optimizeQuality; fill-rule:evenodd; clip-rule:evenodd"
viewBox="0 0 114.06 124.92"
 xmlns:xlink="http://www.w3.org/1999/xlink"
 xmlns:xodm="http://www.corel.com/coreldraw/odm/2003">
 <defs>
  <style type="text/css">
   <![CDATA[
    .str2 {stroke:#009DFF;stroke-width:2.31;stroke-miterlimit:2.61313}
    .str0 {stroke:#999999;stroke-width:0.77;stroke-miterlimit:2.61313}
    .str1 {stroke:#009DFF;stroke-width:2.31;stroke-linecap:round;stroke-linejoin:round;stroke-miterlimit:2.61313}
    .fil4 {fill:none}
    .fil5 {fill:none;fill-rule:nonzero}
    .fil2 {fill:#2F3740}
    .fil1 {fill:#3F4857}
    .fil3 {fill:#BCBCBE}
    .fil0 {fill:#D2D2D2}
   ]]>
  </style>
 </defs>
 <g id="Layer_x0020_1">
  <metadata id="CorelCorpID_0Corel-Layer"/>
  <g id="_2685578422560">
   <path class="fil0 str0" d="M57.03 124.53l-43.49 0c-4.35,0 -7.91,-3.39 -7.91,-7.53l0 -12.14c-2.97,-0.51 -5.25,-3.01 -5.25,-5.98l0 -28.51c0,-2.86 2.11,-5.28 4.92,-5.92 0.89,-7 7.26,-28.74 51.72,-31.45 44.47,2.71 50.83,24.45 51.72,31.45 2.81,0.63 4.92,3.05 4.92,5.92l0 28.51c0,2.98 -2.27,5.47 -5.25,5.98l0 12.14c0,4.14 -3.56,7.53 -7.91,7.53l-43.49 0z"/>
   <g>
    <path class="fil1" d="M94.58 79.49l0 24.58c0,0.76 -0.65,1.37 -1.44,1.37l-36.11 0 -36.11 0c-0.79,0 -1.44,-0.62 -1.44,-1.37l0 -24.58c0,-15.57 18.31,-24.64 37.55,-25.95 19.24,1.31 37.55,10.38 37.55,25.95z"/>
    <path class="fil2" d="M20.13 74.55c22.08,-19.18 46.73,-18.16 72.02,-4.29 -5.6,-9.91 -20.07,-15.69 -35.13,-16.71 -17.1,1.17 -33.47,8.46 -36.9,21z"/>
   </g>
   <path class="fil3" d="M19.48 79.49c0,0 -1.03,-28.5 37.4,-30.54 0,0 33.88,0.85 37.48,27.65 -0.35,-2.28 -1.11,-4.39 -2.21,-6.35l0 0 -0 -0 -0.11 -0.18c-0.07,-0.12 -0.14,-0.23 -0.21,-0.35l-0.14 -0.23 -0.19 -0.3 -0.15 -0.23c-0.08,-0.12 -0.16,-0.23 -0.24,-0.34l-0.11 -0.16c-0.11,-0.16 -0.23,-0.32 -0.35,-0.48l-0.16 -0.21 -0.22 -0.28 -0.18 -0.23 -0.23 -0.27 -0.18 -0.21c-0.11,-0.12 -0.21,-0.24 -0.32,-0.36l-0.2 -0.22c-0.1,-0.11 -0.2,-0.22 -0.31,-0.33l-0.18 -0.18c-0.09,-0.1 -0.19,-0.19 -0.28,-0.28l-0.19 -0.19c-0.1,-0.1 -0.2,-0.19 -0.3,-0.29l-0.17 -0.16c-0.15,-0.14 -0.3,-0.28 -0.45,-0.41l-0.2 -0.17 -0.3 -0.26 -0.22 -0.19 -0.29 -0.24 -0.24 -0.19c-0.12,-0.09 -0.24,-0.19 -0.36,-0.28l-0.25 -0.19c-0.14,-0.1 -0.28,-0.21 -0.42,-0.31l-0.26 -0.18 -0.31 -0.22 -0.25 -0.17 -0.33 -0.23 -0.25 -0.16c-0.16,-0.1 -0.31,-0.2 -0.47,-0.3l-0.32 -0.2 -0.34 -0.21 -0.28 -0.16 -0.33 -0.19 -0.3 -0.17 -0.36 -0.2 -0.25 -0.14c-0.19,-0.1 -0.38,-0.21 -0.58,-0.31l-0.31 -0.16 -0.33 -0.17 -0.29 -0.15 -0.43 -0.21 -0.21 -0.1c-0.22,-0.1 -0.43,-0.2 -0.65,-0.3l-0.01 -0 -0.02 -0.01 -0.13 -0.06c-0.18,-0.08 -0.36,-0.16 -0.54,-0.24l-0.24 -0.1 -0.47 -0.2 -0.24 -0.1 -0.48 -0.19 -0.25 -0.1c-0.22,-0.09 -0.45,-0.17 -0.68,-0.26l-0.21 -0.08 -0.5 -0.18 -0.3 -0.1 -0.44 -0.15 -0.28 -0.1c-0.24,-0.08 -0.48,-0.16 -0.72,-0.24l-0.01 -0c-0.23,-0.08 -0.47,-0.15 -0.7,-0.22l-0.31 -0.09 -0.48 -0.14 -0.27 -0.08 -0.54 -0.15 -0.21 -0.06c-0.25,-0.07 -0.49,-0.13 -0.74,-0.2l-0.28 -0.07 -0.48 -0.12 -0.33 -0.08 -0.47 -0.11 -0.29 -0.07c-0.22,-0.05 -0.44,-0.1 -0.66,-0.15l-0.1 -0.02 -0.04 -0.01c-0.24,-0.05 -0.49,-0.1 -0.73,-0.15l-0.31 -0.06 -0.52 -0.1 -0.28 -0.05 -0.56 -0.1 -0.24 -0.04c-0.26,-0.04 -0.52,-0.09 -0.78,-0.13l-0.03 -0.01 -0.12 -0.02c-0.23,-0.04 -0.45,-0.07 -0.68,-0.1l-0.24 -0.03c-0.2,-0.03 -0.4,-0.06 -0.6,-0.08l-0.24 -0.03c-0.23,-0.03 -0.47,-0.06 -0.7,-0.09l-0.11 -0.01c-0.28,-0.03 -0.56,-0.07 -0.84,-0.1l-0.12 -0.01c-0.24,-0.03 -0.48,-0.05 -0.72,-0.07l-0.19 -0.02 -0.63 -0.06 -0.25 -0.02c-0.27,-0.02 -0.54,-0.04 -0.81,-0.06 -0.29,0.02 -0.57,0.04 -0.86,0.06l-0.25 0.02 -0.6 0.05 -0.29 0.03 -0.58 0.06 -0.3 0.03 -0.56 0.06 -0.3 0.04 -0.54 0.07 -0.33 0.04 -0.55 0.08 -0.28 0.04c-0.21,0.03 -0.42,0.06 -0.63,0.1l-0.21 0.03c-0.26,0.04 -0.52,0.09 -0.78,0.13l-0.06 0.01 -0 0 -0.07 0.01c-0.25,0.04 -0.51,0.09 -0.76,0.14l-0.34 0.07 -0.45 0.09 -0.43 0.09 -0.41 0.09 -0.36 0.08 -0.49 0.11 -0.32 0.07 -0.49 0.11 -0.34 0.08 -0.44 0.11 -0.38 0.1c-0.17,0.04 -0.33,0.09 -0.5,0.13l-0.27 0.07c-0.27,0.07 -0.53,0.15 -0.8,0.22l-0 0c-0.26,0.07 -0.51,0.15 -0.76,0.23l-0.38 0.12 -0.4 0.12 -0.33 0.11 -0.46 0.15 -0.31 0.1 -0.45 0.16 -0.33 0.12 -0.39 0.14 -0.36 0.13 -0.41 0.16 -0.32 0.12 -0.46 0.18 -0.27 0.11c-0.21,0.09 -0.42,0.17 -0.63,0.26l-0.09 0.04 -0 0 -0.11 0.05c-0.2,0.09 -0.39,0.17 -0.59,0.26l-0.32 0.15 -0.37 0.17 -0.35 0.17 -0.34 0.17 -0.34 0.17 -0.34 0.17 -0.33 0.17 -0.33 0.18 -0.35 0.19 -0.27 0.15c-0.12,0.07 -0.25,0.14 -0.37,0.21l-0.31 0.18 -0.32 0.19c-0.11,0.07 -0.23,0.14 -0.34,0.21 -0.23,0.14 -0.47,0.29 -0.7,0.44l-0.16 0.1c-0.12,0.08 -0.25,0.16 -0.37,0.25l-0.23 0.16c-0.12,0.08 -0.23,0.16 -0.34,0.24l-0.24 0.17 -0.32 0.23 -0.26 0.19 -0.32 0.25 -0.21 0.16 -0.33 0.26 -0.23 0.19 -0.3 0.25 -0.21 0.18c-0.11,0.09 -0.22,0.18 -0.32,0.28l-0.06 0.06c-0.26,0.24 -0.52,0.47 -0.77,0.72l-0.12 0.11c-0.09,0.09 -0.19,0.19 -0.28,0.28l-0.2 0.2c-0.09,0.09 -0.17,0.18 -0.26,0.27l-0.2 0.21c-0.09,0.1 -0.18,0.2 -0.28,0.31l-0.15 0.17c-0.09,0.11 -0.19,0.22 -0.28,0.33l-0.14 0.17c-0.09,0.11 -0.18,0.22 -0.27,0.33l-0.15 0.19c-0.08,0.11 -0.17,0.22 -0.25,0.33l-0.12 0.17c-0.33,0.45 -0.63,0.9 -0.92,1.36l-0.01 0.02c-0.08,0.13 -0.16,0.26 -0.23,0.39l-0.1 0.16c-0.07,0.13 -0.14,0.25 -0.21,0.38l-0.1 0.18c-0.07,0.13 -0.13,0.25 -0.2,0.38l-0.09 0.19c-0.06,0.12 -0.12,0.25 -0.18,0.38l-0.09 0.2c-0.06,0.13 -0.11,0.25 -0.17,0.38l-0.08 0.19c-0.05,0.13 -0.11,0.26 -0.16,0.39l-0.07 0.18c-0.05,0.14 -0.1,0.27 -0.15,0.41l-0.03 0.08c-0.64,1.89 -0.99,3.9 -0.99,6.03zm75.05 -1.48l0 0.02 0 0.01 -0 -0.02zm0.05 0.94c0,0.18 0.01,0.37 0.01,0.54l0 -0c0,-0.18 -0.01,-0.36 -0.01,-0.54z"/>
   <ellipse class="fil0" cx="33.58" cy="11.37" rx="8.53" ry="11.37"/>
   <ellipse class="fil3" cx="33.58" cy="11.37" rx="3.79" ry="5.05"/>
   <ellipse class="fil0" cx="80.48" cy="11.37" rx="8.53" ry="11.37"/>
   <ellipse class="fil3" cx="80.48" cy="11.37" rx="3.79" ry="5.05"/>
  </g>
  <g id="_2685578371056">
   <path class="fil4 str1" d="M47.02 71.91l20 0c2.03,0 3.68,1.65 3.68,3.68l0 20c0,2.03 -1.65,3.68 -3.68,3.68l-20 0c-2.03,0 -3.68,-1.65 -3.68,-3.68l0 -20c0,-2.03 1.65,-3.68 3.68,-3.68z"/>
   <line class="fil4 str1" x1="57.14" y1="71.49" x2="57.14" y2= "68.43" />
   <path class="fil5 str2" d="M59.67 66.04c-0,1.4 -1.14,2.53 -2.53,2.53 -1.4,0 -2.53,-1.13 -2.53,-2.53 0,-1.4 1.13,-2.53 2.53,-2.53 0.67,0 1.32,0.27 1.8,0.75 0.47,0.47 0.74,1.11 0.74,1.78 0,0 0,0.01 0,0.01l0 0z"/>
   <path class="fil5 str2" d="M43.09 79.85l-3.26 0c-0.81,0 -1.47,0.66 -1.47,1.47l0 8.54c0,0.81 0.66,1.47 1.47,1.47l3.26 0m0 -11.49l0 0 0 0z"/>
   <path class="fil5 str2" d="M70.86 91.34l3.28 0c0.81,-0 1.47,-0.66 1.47,-1.47l0 -8.54c0,-0.81 -0.66,-1.47 -1.47,-1.47l-3.28 0m0 11.49l0 0 0 0z"/>
   <line class="fil5 str1" x1="49.12" y1="82.55" x2="53.54" y2= "78.12" />
   <line class="fil5 str1" x1="53.54" y1="82.55" x2="49.12" y2= "78.12" />
   <line class="fil5 str1" x1="60.5" y1="82.55" x2="64.92" y2= "78.12" />
   <line class="fil5 str1" x1="64.92" y1="82.55" x2="60.5" y2= "78.12" />
   <line class="fil5 str1" x1="51.09" y1="93.06" x2="62.17" y2= "93.06" />
   <path class="fil5 str1" d="M51.09 93.07c-0,-0.04 -0,-0.08 -0,-0.12 0,-3.07 2.49,-5.56 5.56,-5.56 3.07,0 5.56,2.49 5.56,5.56 0,0.04 -0,0.08 -0,0.12"/>
  </g>
 </g>
</svg>
