<?xml version="1.0" encoding="UTF-8"?>
<!DOCTYPE svg PUBLIC "-//W3C//DTD SVG 1.1//EN" "http://www.w3.org/Graphics/SVG/1.1/DTD/svg11.dtd">
<!-- Creator: CorelDRAW 2020 (64-Bit) -->
<svg xmlns="http://www.w3.org/2000/svg" xml:space="preserve" width="0.277685in" height="0.301083in" version="1.1" style="shape-rendering:geometricPrecision; text-rendering:geometricPrecision; image-rendering:optimizeQuality; fill-rule:evenodd; clip-rule:evenodd"
viewBox="0 0 9.95 10.79"
 xmlns:xlink="http://www.w3.org/1999/xlink"
 xmlns:xodm="http://www.corel.com/coreldraw/odm/2003">
 <defs>
  <style type="text/css">
   <![CDATA[
    .str0 {stroke:#999999;stroke-width:0.25;stroke-miterlimit:2.61313}
    .fil2 {fill:#2F3740}
    .fil1 {fill:#3F4857}
    .fil3 {fill:#BCBCBE}
    .fil0 {fill:#D2D2D2}
    .fil4 {fill:#009DFF;fill-rule:nonzero}
   ]]>
  </style>
 </defs>
 <g id="Layer_x0020_1">
  <metadata id="CorelCorpID_0Corel-Layer"/>
  <g id="_2104763025904">
   <path class="fil0 str0" d="M4.98 10.66l-3.72 0c-0.37,0 -0.68,-0.29 -0.68,-0.64l0 -1.04c-0.25,-0.04 -0.45,-0.26 -0.45,-0.51l0 -2.44c0,-0.25 0.18,-0.45 0.42,-0.51 0.08,-0.6 0.62,-2.46 4.43,-2.69 3.81,0.23 4.35,2.09 4.43,2.69 0.24,0.05 0.42,0.26 0.42,0.51l0 2.44c0,0.25 -0.19,0.47 -0.45,0.51l0 1.04c0,0.35 -0.3,0.64 -0.68,0.64l-3.72 0z"/>
   <g>
    <path class="fil1" d="M8.19 6.81l0 2.11c0,0.06 -0.06,0.12 -0.12,0.12l-3.09 0 -3.09 0c-0.07,0 -0.12,-0.05 -0.12,-0.12l0 -2.11c0,-1.33 1.57,-2.11 3.22,-2.22 1.65,0.11 3.22,0.89 3.22,2.22z"/>
    <path class="fil2" d="M1.82 6.38c1.89,-1.64 4,-1.55 6.17,-0.37 -0.48,-0.85 -1.72,-1.34 -3.01,-1.43 -1.46,0.1 -2.87,0.72 -3.16,1.8z"/>
   </g>
   <path class="fil3" d="M1.76 6.81c0,0 -0.09,-2.44 3.2,-2.62 0,0 2.9,0.07 3.21,2.37 -0.03,-0.19 -0.09,-0.38 -0.19,-0.54l0 0 -0 -0 -0.01 -0.02c-0.01,-0.01 -0.01,-0.02 -0.02,-0.03l-0.01 -0.02 -0.02 -0.03 -0.01 -0.02c-0.01,-0.01 -0.01,-0.02 -0.02,-0.03l-0.01 -0.01c-0.01,-0.01 -0.02,-0.03 -0.03,-0.04l-0.01 -0.02 -0.02 -0.02 -0.02 -0.02 -0.02 -0.02 -0.02 -0.02c-0.01,-0.01 -0.02,-0.02 -0.03,-0.03l-0.02 -0.02c-0.01,-0.01 -0.02,-0.02 -0.03,-0.03l-0.02 -0.02c-0.01,-0.01 -0.02,-0.02 -0.02,-0.02l-0.02 -0.02c-0.01,-0.01 -0.02,-0.02 -0.03,-0.02l-0.01 -0.01c-0.01,-0.01 -0.03,-0.02 -0.04,-0.04l-0.02 -0.01 -0.03 -0.02 -0.02 -0.02 -0.02 -0.02 -0.02 -0.02c-0.01,-0.01 -0.02,-0.02 -0.03,-0.02l-0.02 -0.02c-0.01,-0.01 -0.02,-0.02 -0.04,-0.03l-0.02 -0.02 -0.03 -0.02 -0.02 -0.01 -0.03 -0.02 -0.02 -0.01c-0.01,-0.01 -0.03,-0.02 -0.04,-0.03l-0.03 -0.02 -0.03 -0.02 -0.02 -0.01 -0.03 -0.02 -0.03 -0.01 -0.03 -0.02 -0.02 -0.01c-0.02,-0.01 -0.03,-0.02 -0.05,-0.03l-0.03 -0.01 -0.03 -0.01 -0.03 -0.01 -0.04 -0.02 -0.02 -0.01c-0.02,-0.01 -0.04,-0.02 -0.06,-0.03l-0 -0 -0 -0 -0.01 -0c-0.02,-0.01 -0.03,-0.01 -0.05,-0.02l-0.02 -0.01 -0.04 -0.02 -0.02 -0.01 -0.04 -0.02 -0.02 -0.01c-0.02,-0.01 -0.04,-0.01 -0.06,-0.02l-0.02 -0.01 -0.04 -0.02 -0.03 -0.01 -0.04 -0.01 -0.02 -0.01c-0.02,-0.01 -0.04,-0.01 -0.06,-0.02l-0 -0c-0.02,-0.01 -0.04,-0.01 -0.06,-0.02l-0.03 -0.01 -0.04 -0.01 -0.02 -0.01 -0.05 -0.01 -0.02 -0.01c-0.02,-0.01 -0.04,-0.01 -0.06,-0.02l-0.02 -0.01 -0.04 -0.01 -0.03 -0.01 -0.04 -0.01 -0.02 -0.01c-0.02,-0 -0.04,-0.01 -0.06,-0.01l-0.01 -0 -0 -0c-0.02,-0 -0.04,-0.01 -0.06,-0.01l-0.03 -0.01 -0.04 -0.01 -0.02 -0 -0.05 -0.01 -0.02 -0c-0.02,-0 -0.04,-0.01 -0.07,-0.01l-0 -0 -0.01 -0c-0.02,-0 -0.04,-0.01 -0.06,-0.01l-0.02 -0c-0.02,-0 -0.03,-0 -0.05,-0.01l-0.02 -0c-0.02,-0 -0.04,-0.01 -0.06,-0.01l-0.01 -0c-0.02,-0 -0.05,-0.01 -0.07,-0.01l-0.01 -0c-0.02,-0 -0.04,-0 -0.06,-0.01l-0.02 -0 -0.05 -0 -0.02 -0c-0.02,-0 -0.05,-0 -0.07,-0.01 -0.02,0 -0.05,0 -0.07,0.01l-0.02 0 -0.05 0 -0.02 0 -0.05 0 -0.03 0 -0.05 0.01 -0.03 0 -0.05 0.01 -0.03 0 -0.05 0.01 -0.02 0c-0.02,0 -0.04,0.01 -0.05,0.01l-0.02 0c-0.02,0 -0.04,0.01 -0.07,0.01l-0.01 0 0 0 -0.01 0c-0.02,0 -0.04,0.01 -0.06,0.01l-0.03 0.01 -0.04 0.01 -0.04 0.01 -0.04 0.01 -0.03 0.01 -0.04 0.01 -0.03 0.01 -0.04 0.01 -0.03 0.01 -0.04 0.01 -0.03 0.01c-0.01,0 -0.03,0.01 -0.04,0.01l-0.02 0.01c-0.02,0.01 -0.05,0.01 -0.07,0.02l-0 0c-0.02,0.01 -0.04,0.01 -0.07,0.02l-0.03 0.01 -0.03 0.01 -0.03 0.01 -0.04 0.01 -0.03 0.01 -0.04 0.01 -0.03 0.01 -0.03 0.01 -0.03 0.01 -0.04 0.01 -0.03 0.01 -0.04 0.02 -0.02 0.01c-0.02,0.01 -0.04,0.01 -0.05,0.02l-0.01 0 -0 0 -0.01 0c-0.02,0.01 -0.03,0.01 -0.05,0.02l-0.03 0.01 -0.03 0.01 -0.03 0.01 -0.03 0.01 -0.03 0.01 -0.03 0.01 -0.03 0.01 -0.03 0.02 -0.03 0.02 -0.02 0.01c-0.01,0.01 -0.02,0.01 -0.03,0.02l-0.03 0.02 -0.03 0.02c-0.01,0.01 -0.02,0.01 -0.03,0.02 -0.02,0.01 -0.04,0.02 -0.06,0.04l-0.01 0.01c-0.01,0.01 -0.02,0.01 -0.03,0.02l-0.02 0.01c-0.01,0.01 -0.02,0.01 -0.03,0.02l-0.02 0.01 -0.03 0.02 -0.02 0.02 -0.03 0.02 -0.02 0.01 -0.03 0.02 -0.02 0.02 -0.03 0.02 -0.02 0.02c-0.01,0.01 -0.02,0.02 -0.03,0.02l-0.01 0c-0.02,0.02 -0.04,0.04 -0.07,0.06l-0.01 0.01c-0.01,0.01 -0.02,0.02 -0.02,0.02l-0.02 0.02c-0.01,0.01 -0.01,0.02 -0.02,0.02l-0.02 0.02c-0.01,0.01 -0.02,0.02 -0.02,0.03l-0.01 0.01c-0.01,0.01 -0.02,0.02 -0.02,0.03l-0.01 0.01c-0.01,0.01 -0.02,0.02 -0.02,0.03l-0.01 0.02c-0.01,0.01 -0.01,0.02 -0.02,0.03l-0.01 0.01c-0.03,0.04 -0.05,0.08 -0.08,0.12l-0 0c-0.01,0.01 -0.01,0.02 -0.02,0.03l-0.01 0.01c-0.01,0.01 -0.01,0.02 -0.02,0.03l-0.01 0.02c-0.01,0.01 -0.01,0.02 -0.02,0.03l-0.01 0.02c-0.01,0.01 -0.01,0.02 -0.02,0.03l-0.01 0.02c-0,0.01 -0.01,0.02 -0.01,0.03l-0.01 0.02c-0,0.01 -0.01,0.02 -0.01,0.03l-0.01 0.02c-0,0.01 -0.01,0.02 -0.01,0.04l-0 0.01c-0.06,0.16 -0.08,0.33 -0.08,0.52zm6.43 -0.13l0 0 0 0 -0 -0zm0 0.08c0,0.02 0,0.03 0,0.05l0 -0c0,-0.02 -0,-0.03 -0,-0.05z"/>
   <ellipse class="fil0" cx="2.97" cy="0.97" rx="0.73" ry="0.97"/>
   <ellipse class="fil3" cx="2.97" cy="0.97" rx="0.32" ry="0.43"/>
   <ellipse class="fil0" cx="6.98" cy="0.97" rx="0.73" ry="0.97"/>
   <ellipse class="fil3" cx="6.98" cy="0.97" rx="0.32" ry="0.43"/>
  </g>
  <path class="fil4" d="M4.98 8.12c0.81,0 1.47,-0.53 1.47,-1.19 0,-0.66 -0.66,-1.19 -1.47,-1.19 -0.81,0 -1.47,0.53 -1.47,1.19 0,0.26 0.1,0.5 0.27,0.69 -0.01,0.14 -0.07,0.27 -0.12,0.36 -0.03,0.05 -0.06,0.1 -0.09,0.12 -0.01,0.01 -0.02,0.03 -0.03,0.03 -0,0 -0.01,0.01 -0.01,0.01l-0 0 0 0 0 0 0 0 0 0c-0.03,0.03 -0.03,0.07 -0.02,0.1 0.01,0.03 0.05,0.06 0.09,0.06 0.16,0 0.33,-0.05 0.47,-0.11 0.13,-0.06 0.24,-0.13 0.31,-0.18 0.18,0.07 0.38,0.1 0.6,0.1l0 -0zm-0.3 -1.56c0.04,-0.01 0.08,0 0.1,0.03l0.2 0.27 0.2 -0.27c0.02,-0.03 0.06,-0.04 0.1,-0.03 0.04,0.01 0.06,0.05 0.06,0.09l0 0.55c0,0.05 -0.04,0.09 -0.09,0.09 -0.05,0 -0.09,-0.04 -0.09,-0.09l0 -0.28 -0.11 0.15c-0.02,0.02 -0.04,0.04 -0.07,0.04 -0.03,0 -0.06,-0.01 -0.07,-0.04l-0.11 -0.15 0 0.28c0,0.05 -0.04,0.09 -0.09,0.09 -0.05,0 -0.09,-0.04 -0.09,-0.09l0 -0.55c0,-0.04 0.03,-0.07 0.06,-0.09zm0.99 0.22c0,0 0,0 0,0 0,0 0,0 0.01,0.01 0.02,0.01 0.06,0.02 0.1,0.04l0 0c0.04,0.01 0.1,0.03 0.14,0.06 0.05,0.03 0.1,0.09 0.1,0.17 0,0.09 -0.04,0.15 -0.1,0.19 -0.05,0.03 -0.12,0.05 -0.18,0.04 -0.07,-0 -0.14,-0.03 -0.19,-0.04l0 0 0 0c-0.01,-0 -0.02,-0.01 -0.02,-0.01 -0.05,-0.02 -0.07,-0.07 -0.06,-0.12 0.02,-0.05 0.07,-0.07 0.12,-0.06 0.01,0 0.02,0.01 0.03,0.01l0 0 0 0c0.05,0.02 0.09,0.03 0.13,0.03 0.03,0 0.06,-0.01 0.07,-0.02 0.01,-0 0.01,-0.01 0.01,-0.01 0,-0 0,-0.01 0,-0.02l0 -0c0,-0 0,-0.01 -0.02,-0.02 -0.02,-0.01 -0.06,-0.02 -0.1,-0.04l-0.01 -0c-0.04,-0.01 -0.1,-0.03 -0.14,-0.06 -0.05,-0.03 -0.1,-0.08 -0.1,-0.17 -0,-0.09 0.05,-0.15 0.11,-0.18 0.05,-0.03 0.12,-0.04 0.17,-0.04 0.06,0 0.11,0.01 0.16,0.03 0.05,0.01 0.08,0.06 0.06,0.11 -0.01,0.05 -0.06,0.08 -0.11,0.06 -0.04,-0.01 -0.08,-0.02 -0.12,-0.02 -0.03,-0 -0.06,0.01 -0.07,0.02 -0.01,0 -0.01,0.01 -0.01,0.01 -0,0 -0,0 -0,0.01l0 0zm-1.56 0c0,0 0,0 0,0 0,0 0,0 0.01,0.01 0.02,0.01 0.06,0.02 0.11,0.04l0 0c0.04,0.01 0.1,0.03 0.14,0.06 0.05,0.03 0.1,0.09 0.1,0.17 0,0.09 -0.04,0.15 -0.1,0.19 -0.05,0.03 -0.12,0.05 -0.18,0.04 -0.07,-0 -0.14,-0.03 -0.19,-0.04l0 0 0 0c-0.01,-0 -0.01,-0 -0.02,-0.01 -0.05,-0.02 -0.07,-0.07 -0.06,-0.12 0.02,-0.05 0.07,-0.07 0.12,-0.06 0.01,0 0.02,0.01 0.02,0.01l0 0 0 0 0 0c0.05,0.02 0.09,0.03 0.14,0.03 0.03,0 0.06,-0.01 0.07,-0.02 0.01,-0 0.01,-0.01 0.01,-0.01 0,-0 0,-0.01 0,-0.02l0 -0c0,-0 0,-0.01 -0.02,-0.02 -0.02,-0.01 -0.06,-0.02 -0.1,-0.04l-0.01 -0 0 0c-0.04,-0.01 -0.1,-0.03 -0.14,-0.06 -0.05,-0.03 -0.1,-0.08 -0.1,-0.17 -0,-0.09 0.05,-0.15 0.11,-0.18 0.05,-0.03 0.12,-0.04 0.17,-0.04 0.05,0 0.13,0.01 0.18,0.03 0.05,0.01 0.08,0.06 0.06,0.11 -0.01,0.05 -0.06,0.08 -0.11,0.06 -0.04,-0.01 -0.1,-0.02 -0.13,-0.02 -0.03,-0 -0.06,0.01 -0.07,0.02 -0.01,0 -0.01,0.01 -0.01,0.01 -0,0 -0,0 -0,0.01l0 0z"/>
 </g>
</svg>
