<?xml version="1.0" encoding="UTF-8"?>
<!DOCTYPE svg PUBLIC "-//W3C//DTD SVG 1.1//EN" "http://www.w3.org/Graphics/SVG/1.1/DTD/svg11.dtd">
<!-- Creator: CorelDRAW 2020 (64-Bit) -->
<svg xmlns="http://www.w3.org/2000/svg" xml:space="preserve" width="1.13617in" height="1.13327in" version="1.1" style="shape-rendering:geometricPrecision; text-rendering:geometricPrecision; image-rendering:optimizeQuality; fill-rule:evenodd; clip-rule:evenodd"
viewBox="0 0 129.08 128.75"
 xmlns:xlink="http://www.w3.org/1999/xlink"
 xmlns:xodm="http://www.corel.com/coreldraw/odm/2003">
 <defs>
  <style type="text/css">
   <![CDATA[
    .str0 {stroke:#FFFFFF00;stroke-width:0.34;stroke-miterlimit:2.61313}
    .fil0 {fill:#FFFFFF}
   ]]>
  </style>
 </defs>
 <g id="Layer_x0020_1">
  <metadata id="CorelCorpID_0Corel-Layer"/>
  <path class="fil0 str0" d="M116.52 64.47c16.33,-7.01 13.24,-10.99 9.05,-24.15 -1.13,-3.54 -4.73,-6.58 -8.61,-6.26 -4.97,0.41 -9.82,0.89 -9.82,0.89 -1.36,-2.31 -3.23,-4.58 -5.57,-6.8 1.44,-4.88 5.65,-15.22 -0.66,-18.58 -3.58,-1.91 -11.33,-6.05 -11.33,-6.05 0,0 -5.83,-1.41 -9.01,2.23 -3.18,3.65 -6.74,7.74 -6.74,7.74 0,0 -6.86,-1.51 -8.63,-0.77 -0.03,0.01 -0.07,0.05 -0.1,0.1l-0.48 0.01 0 -0.26c-7.01,-16.33 -11,-13.24 -24.16,-9.05 -3.54,1.13 -6.58,4.74 -6.26,8.62 0.41,4.97 0.89,9.82 0.89,9.82 -2.31,1.36 -4.58,3.23 -6.8,5.57 -4.88,-1.44 -15.22,-5.65 -18.58,0.66 -1.91,3.58 -6.05,11.33 -6.05,11.33 0,0 -1.41,5.83 2.24,9.01 3.65,3.18 7.75,6.74 7.75,6.74 0,0 -0.46,2.11 -0.75,4.3l0 0c-0.21,1.63 -0.33,3.3 -0.08,4.16l-0.09 -0c-16.43,6.78 -13.4,10.81 -9.39,24.02 1.08,3.55 4.64,6.65 8.52,6.38 4.98,-0.34 9.84,-0.75 9.84,-0.75 1.32,2.33 3.16,4.62 5.47,6.88 -1.51,4.86 -5.86,15.14 0.39,18.59 3.55,1.96 11.25,6.21 11.25,6.21 0,0 5.81,1.49 9.04,-2.11 3.23,-3.6 6.85,-7.65 6.85,-7.65 0,0 6.84,1.61 8.62,0.9l2.04 0.05 0 0.11c7.24,16.23 11.18,13.09 24.28,8.71 3.52,-1.18 6.51,-4.83 6.14,-8.7 -0.48,-4.96 -1.03,-9.81 -1.03,-9.81 2.29,-1.39 4.53,-3.29 6.72,-5.66 4.9,1.37 15.3,5.43 18.57,-0.92 1.86,-3.61 5.89,-11.42 5.89,-11.42 0,0 1.32,-5.85 -2.36,-8.98 -3.69,-3.12 -7.84,-6.63 -7.84,-6.63 0,0 1.33,-6.47 0.71,-8.47l0.09 0zm-51.98 -22.74c-12.5,0 -22.64,10.14 -22.64,22.64 0,12.5 10.14,22.64 22.64,22.64 12.5,0 22.64,-10.14 22.64,-22.64 0,-12.5 -10.14,-22.64 -22.64,-22.64z"/>
 </g>
</svg>
